<svg width="60" height="60" viewBox="0 0 60 60" fill="none"
	xmlns="http://www.w3.org/2000/svg">
	<circle cx="30" cy="30" r="30" fill="white"/>
	<path d="M14.672 33V27.35H12.452V26.4H17.962V27.35H15.732V33H14.672ZM24.3121 33H23.1021L21.2221 30.45H20.0121V33H18.9521V26.4H21.3621C22.0287 26.4 22.5687 26.59 22.9821 26.97C23.3954 27.3433 23.6021 27.8267 23.6021 28.42C23.6021 28.8533 23.4887 29.2333 23.2621 29.56C23.0421 29.8867 22.7321 30.1267 22.3321 30.28L24.3121 33ZM20.0121 27.34V29.51H21.3421C21.7021 29.51 21.9854 29.4133 22.1921 29.22C22.4054 29.02 22.5121 28.7567 22.5121 28.43C22.5121 28.1033 22.4054 27.84 22.1921 27.64C21.9854 27.44 21.7021 27.34 21.3421 27.34H20.0121ZM25.2607 33V26.4H29.6007V27.35H26.3207V29.04H28.7907V29.96H26.3207V32.05H29.7207V33H25.2607ZM35.334 26.4H36.394V33.11H36.034L32.014 28.53V33H30.954V26.29H31.324L35.334 30.85V26.4ZM38.0634 33V26.4H40.1334C41.2067 26.4 42.0734 26.7033 42.7334 27.31C43.3934 27.9167 43.7234 28.71 43.7234 29.69C43.7234 30.6567 43.3901 31.45 42.7234 32.07C42.0634 32.69 41.2001 33 40.1334 33H38.0634ZM39.1234 32.05H40.1234C40.8834 32.05 41.4901 31.8333 41.9434 31.4C42.4034 30.96 42.6334 30.39 42.6334 29.69C42.6334 28.9833 42.4067 28.42 41.9534 28C41.5001 27.5733 40.8901 27.36 40.1234 27.36H39.1234V32.05ZM44.4572 32.16L45.0572 31.5C45.5039 31.9667 45.9639 32.2 46.4372 32.2C46.6706 32.2 46.8606 32.1533 47.0072 32.06C47.1539 31.96 47.2272 31.8233 47.2272 31.65C47.2272 31.5167 47.1772 31.41 47.0772 31.33C46.9772 31.2433 46.7972 31.1467 46.5372 31.04L46.0372 30.83C45.5906 30.6433 45.2639 30.4433 45.0572 30.23C44.8572 30.01 44.7572 29.7333 44.7572 29.4C44.7572 28.9667 44.9172 28.6233 45.2372 28.37C45.5639 28.11 45.9806 27.98 46.4872 27.98C47.1939 27.98 47.7606 28.2333 48.1872 28.74L47.6172 29.39C47.2972 29.0567 46.9139 28.89 46.4672 28.89C46.0206 28.89 45.7972 29.0467 45.7972 29.36C45.7972 29.48 45.8439 29.5833 45.9372 29.67C46.0306 29.75 46.2006 29.84 46.4472 29.94L46.9172 30.13C47.3906 30.33 47.7306 30.5433 47.9372 30.77C48.1506 30.99 48.2572 31.27 48.2572 31.61C48.2572 32.0833 48.0839 32.4533 47.7372 32.72C47.3906 32.98 46.9572 33.11 46.4372 33.11C45.6039 33.11 44.9439 32.7933 44.4572 32.16Z" fill="currentColor"/>
	<path d="M14.672 33V27.35H12.452V26.4H17.962V27.35H15.732V33H14.672Z" fill="currentColor"/>
	<path d="M24.312 33H23.102L21.222 30.45H20.012V33H18.952V26.4H21.362C22.0287 26.4 22.5687 26.59 22.982 26.97C23.3954 27.3434 23.602 27.8267 23.602 28.42C23.602 28.8534 23.4887 29.2334 23.262 29.56C23.042 29.8867 22.732 30.1267 22.332 30.28L24.312 33ZM20.012 27.34V29.51H21.342C21.702 29.51 21.9854 29.4134 22.192 29.22C22.4054 29.02 22.512 28.7567 22.512 28.43C22.512 28.1034 22.4054 27.84 22.192 27.64C21.9854 27.44 21.702 27.34 21.342 27.34H20.012Z" fill="currentColor"/>
	<path d="M25.2606 33V26.4H29.6006V27.35H26.3206V29.04H28.7906V29.96H26.3206V32.05H29.7206V33H25.2606Z" fill="currentColor"/>
	<path d="M35.334 26.4H36.394V33.11H36.034L32.014 28.53V33H30.954V26.29H31.324L35.334 30.85V26.4Z" fill="currentColor"/>
	<path d="M38.0634 33V26.4H40.1334C41.2067 26.4 42.0734 26.7034 42.7334 27.31C43.3934 27.9167 43.7234 28.71 43.7234 29.69C43.7234 30.6567 43.39 31.45 42.7234 32.07C42.0634 32.69 41.2 33 40.1334 33H38.0634ZM39.1234 32.05H40.1234C40.8834 32.05 41.49 31.8334 41.9434 31.4C42.4034 30.96 42.6334 30.39 42.6334 29.69C42.6334 28.9834 42.4067 28.42 41.9534 28C41.5 27.5734 40.89 27.36 40.1234 27.36H39.1234V32.05Z" fill="currentColor"/>
	<path d="M44.4572 32.16L45.0572 31.5C45.5039 31.9667 45.9639 32.2 46.4372 32.2C46.6705 32.2 46.8605 32.1534 47.0072 32.06C47.1539 31.96 47.2272 31.8234 47.2272 31.65C47.2272 31.5167 47.1772 31.41 47.0772 31.33C46.9772 31.2434 46.7972 31.1467 46.5372 31.04L46.0372 30.83C45.5905 30.6434 45.2639 30.4434 45.0572 30.23C44.8572 30.01 44.7572 29.7334 44.7572 29.4C44.7572 28.9667 44.9172 28.6234 45.2372 28.37C45.5639 28.11 45.9805 27.98 46.4872 27.98C47.1939 27.98 47.7605 28.2334 48.1872 28.74L47.6172 29.39C47.2972 29.0567 46.9139 28.89 46.4672 28.89C46.0205 28.89 45.7972 29.0467 45.7972 29.36C45.7972 29.48 45.8439 29.5834 45.9372 29.67C46.0305 29.75 46.2005 29.84 46.4472 29.94L46.9172 30.13C47.3905 30.33 47.7305 30.5434 47.9372 30.77C48.1505 30.99 48.2572 31.27 48.2572 31.61C48.2572 32.0834 48.0839 32.4534 47.7372 32.72C47.3905 32.98 46.9572 33.11 46.4372 33.11C45.6039 33.11 44.9439 32.7934 44.4572 32.16Z" fill="currentColor"/>
</svg>
